<svg width="192" height="32" viewBox="0 0 192 32" fill="none" xmlns="http://www.w3.org/2000/svg">
<path d="M5.08875 20.0678C4.52998 20.0698 3.98434 20.2373 3.52066 20.5492C3.05699 20.861 2.69606 21.3032 2.48343 21.8199C2.27079 22.3366 2.21598 22.9048 2.3259 23.4526C2.43581 24.0005 2.70554 24.5035 3.10105 24.8982C3.49655 25.2929 4.00011 25.5617 4.54818 25.6705C5.09625 25.7793 5.66428 25.7234 6.18059 25.5097C6.6969 25.2961 7.13835 24.9343 7.44926 24.47C7.76016 24.0057 7.92657 23.4597 7.9275 22.9009C7.92515 22.1493 7.62513 21.4292 7.09311 20.8982C6.56109 20.3673 5.8404 20.0687 5.08875 20.0678Z" fill="#3479EB"/>
<path d="M2.25 12.7502V16.8072C4.6875 16.8072 7.02844 17.5286 8.75016 19.2499C10.4719 20.9711 11.1877 23.3074 11.1877 25.75H15.2498C15.2498 18.6457 9.35953 12.7502 2.25 12.7502Z" fill="#3479EB"/>
<path d="M2.25 6.25V10.3075C10.9336 10.3075 17.6822 17.0612 17.6822 25.75H21.75C21.75 14.9997 13.0158 6.25 2.25 6.25Z" fill="#3479EB"/>
<path d="M33.4297 8.03125H44.8203V10.9375H36.9453V15.0625H44.2344V17.9688H36.9453V22.0938H44.8438V25H33.4297V8.03125ZM52.7422 16.75L55.1562 12.2734H58.7422L55.0156 18.625L58.8359 25H55.2734L52.7422 20.5703L50.2578 25H46.6484L50.4453 18.625L46.7891 12.2734H50.375L52.7422 16.75ZM65.9609 25.2578C64.6875 25.2578 63.5781 24.9805 62.6328 24.4258C61.6953 23.8711 60.9766 23.0977 60.4766 22.1055C59.9766 21.1133 59.7266 19.9688 59.7266 18.6719C59.7266 17.375 59.9766 16.2344 60.4766 15.25C60.9844 14.2578 61.707 13.4883 62.6445 12.9414C63.5898 12.3867 64.6953 12.1094 65.9609 12.1094C67.0469 12.1094 68.0078 12.3086 68.8438 12.707C69.6797 13.1055 70.3359 13.6719 70.8125 14.4062C71.2969 15.1328 71.5625 15.9766 71.6094 16.9375H68.3516C68.2422 16.2891 67.9844 15.7734 67.5781 15.3906C67.1719 15 66.6484 14.8047 66.0078 14.8047C65.4531 14.8047 64.9648 14.957 64.543 15.2617C64.1289 15.5586 63.8086 15.9961 63.582 16.5742C63.3555 17.1523 63.2422 17.8359 63.2422 18.625C63.2422 19.4375 63.3555 20.1328 63.582 20.7109C63.8086 21.2891 64.1289 21.7305 64.543 22.0352C64.957 22.3398 65.4453 22.4922 66.0078 22.4922C66.625 22.4922 67.1445 22.3086 67.5664 21.9414C67.9883 21.5742 68.25 21.0547 68.3516 20.3828H71.6094C71.5547 21.3438 71.293 22.1914 70.8242 22.9258C70.3555 23.6602 69.7031 24.2344 68.8672 24.6484C68.0391 25.0547 67.0703 25.2578 65.9609 25.2578ZM77.2344 25H73.7656V8.03125H77.1406V14.5H77.2812C77.5781 13.7422 78.0508 13.1562 78.6992 12.7422C79.3477 12.3203 80.1406 12.1094 81.0781 12.1094C81.9609 12.1094 82.7344 12.3008 83.3984 12.6836C84.0625 13.0664 84.5742 13.6172 84.9336 14.3359C85.3008 15.0547 85.4844 15.9062 85.4844 16.8906V25H82.0156V17.5C82.0156 16.7109 81.8125 16.0977 81.4062 15.6602C81.0078 15.2148 80.4453 14.9922 79.7188 14.9922C79.2344 14.9922 78.8047 15.0977 78.4297 15.3086C78.0547 15.5117 77.7617 15.8125 77.5508 16.2109C77.3398 16.6094 77.2344 17.0859 77.2344 17.6406V25ZM87.5469 21.4375C87.5469 20.125 87.9883 19.1641 88.8711 18.5547C89.7539 17.9453 90.8906 17.6016 92.2812 17.5234C93.1406 17.4688 94.1953 17.4141 95.4453 17.3594V16.3281C95.4297 15.7969 95.2461 15.3828 94.8945 15.0859C94.543 14.7891 94.0469 14.6406 93.4062 14.6406C92.8281 14.6406 92.3555 14.7656 91.9883 15.0156C91.6211 15.2656 91.3906 15.6094 91.2969 16.0469H87.9922C88.0625 15.2969 88.3203 14.625 88.7656 14.0312C89.2188 13.4375 89.8477 12.9688 90.6523 12.625C91.457 12.2812 92.4062 12.1094 93.5 12.1094C94.4688 12.1094 95.3594 12.2617 96.1719 12.5664C96.9922 12.8711 97.6484 13.3477 98.1406 13.9961C98.6406 14.6367 98.8906 15.4453 98.8906 16.4219V25H95.6094V23.2422H95.5156C95.1797 23.8594 94.6992 24.3477 94.0742 24.707C93.457 25.0586 92.6953 25.2344 91.7891 25.2344C90.9609 25.2344 90.2266 25.0938 89.5859 24.8125C88.9531 24.5234 88.4531 24.0938 88.0859 23.5234C87.7266 22.9531 87.5469 22.2578 87.5469 21.4375ZM90.875 21.3438C90.875 21.8203 91.0469 22.1914 91.3906 22.457C91.7422 22.7148 92.2031 22.8438 92.7734 22.8438C93.2891 22.8438 93.75 22.7383 94.1562 22.5273C94.5703 22.3164 94.8906 22.0273 95.1172 21.6602C95.3438 21.293 95.4531 20.8906 95.4453 20.4531V19.5273C95.0781 19.5352 94.625 19.5547 94.0859 19.5859C93.5469 19.6172 93.1328 19.6484 92.8438 19.6797C92.2344 19.7422 91.7539 19.9141 91.4023 20.1953C91.0508 20.4766 90.875 20.8594 90.875 21.3438ZM105.008 25H101.539V12.2734H104.844V14.5H104.984C105.281 13.75 105.762 13.1641 106.426 12.7422C107.09 12.3203 107.883 12.1094 108.805 12.1094C109.688 12.1094 110.461 12.3008 111.125 12.6836C111.789 13.0664 112.301 13.6211 112.66 14.3477C113.02 15.0664 113.195 15.9141 113.188 16.8906V25H109.742V17.5C109.742 16.7188 109.539 16.1055 109.133 15.6602C108.727 15.2148 108.164 14.9922 107.445 14.9922C106.703 14.9922 106.109 15.2266 105.664 15.6953C105.227 16.1641 105.008 16.8125 105.008 17.6406V25ZM121.602 30.0391C120.445 30.0391 119.438 29.875 118.578 29.5469C117.719 29.2188 117.043 28.7539 116.551 28.1523C116.066 27.5586 115.789 26.8594 115.719 26.0547H119.141C119.234 26.5469 119.5 26.9141 119.938 27.1562C120.383 27.4062 120.961 27.5312 121.672 27.5312C122.523 27.5312 123.184 27.332 123.652 26.9336C124.129 26.543 124.367 25.9219 124.367 25.0703V22.75H124.203C123.938 23.3359 123.5 23.8281 122.891 24.2266C122.289 24.6172 121.516 24.8125 120.57 24.8125C119.586 24.8125 118.703 24.582 117.922 24.1211C117.141 23.6523 116.523 22.9492 116.07 22.0117C115.617 21.0742 115.391 19.9219 115.391 18.5547C115.391 17.1641 115.621 15.9844 116.082 15.0156C116.543 14.0469 117.164 13.3203 117.945 12.8359C118.734 12.3516 119.609 12.1094 120.57 12.1094C121.531 12.1094 122.305 12.332 122.891 12.7773C123.477 13.2227 123.914 13.7656 124.203 14.4062H124.344V12.2734H127.789V25.1406C127.789 26.1953 127.527 27.0898 127.004 27.8242C126.48 28.5586 125.754 29.1094 124.824 29.4766C123.895 29.8516 122.82 30.0391 121.602 30.0391ZM121.648 22.2109C122.508 22.2109 123.176 21.8945 123.652 21.2617C124.129 20.6211 124.367 19.7344 124.367 18.6016C124.367 17.4531 124.129 16.5469 123.652 15.8828C123.176 15.2109 122.508 14.875 121.648 14.875C120.789 14.875 120.125 15.2148 119.656 15.8945C119.188 16.5664 118.953 17.4688 118.953 18.6016C118.953 19.7188 119.184 20.6016 119.645 21.25C120.113 21.8906 120.781 22.2109 121.648 22.2109ZM136.25 25.2578C134.961 25.2578 133.844 24.9922 132.898 24.4609C131.961 23.9297 131.238 23.1719 130.73 22.1875C130.223 21.1953 129.969 20.0312 129.969 18.6953C129.969 17.3906 130.219 16.2422 130.719 15.25C131.227 14.25 131.945 13.4766 132.875 12.9297C133.805 12.3828 134.883 12.1094 136.109 12.1094C137.25 12.1094 138.27 12.3516 139.168 12.8359C140.074 13.3125 140.785 14.0352 141.301 15.0039C141.824 15.9727 142.086 17.1562 142.086 18.5547V19.5391H133.391C133.391 20.1719 133.508 20.7227 133.742 21.1914C133.984 21.6602 134.324 22.0234 134.762 22.2812C135.207 22.5312 135.727 22.6562 136.32 22.6562C136.891 22.6562 137.383 22.543 137.797 22.3164C138.211 22.082 138.508 21.7656 138.688 21.3672H141.992C141.828 22.1484 141.492 22.832 140.984 23.418C140.477 24.0039 139.816 24.457 139.004 24.7773C138.199 25.0977 137.281 25.2578 136.25 25.2578ZM138.805 17.3594C138.805 16.8516 138.691 16.3984 138.465 16C138.246 15.5938 137.938 15.2773 137.539 15.0508C137.141 14.8242 136.688 14.7109 136.18 14.7109C135.664 14.7109 135.195 14.8281 134.773 15.0625C134.359 15.2969 134.027 15.6172 133.777 16.0234C133.535 16.4297 133.406 16.875 133.391 17.3594H138.805ZM149.188 21.4375C149.188 20.125 149.629 19.1641 150.512 18.5547C151.395 17.9453 152.531 17.6016 153.922 17.5234C154.781 17.4688 155.836 17.4141 157.086 17.3594V16.3281C157.07 15.7969 156.887 15.3828 156.535 15.0859C156.184 14.7891 155.688 14.6406 155.047 14.6406C154.469 14.6406 153.996 14.7656 153.629 15.0156C153.262 15.2656 153.031 15.6094 152.938 16.0469H149.633C149.703 15.2969 149.961 14.625 150.406 14.0312C150.859 13.4375 151.488 12.9688 152.293 12.625C153.098 12.2812 154.047 12.1094 155.141 12.1094C156.109 12.1094 157 12.2617 157.812 12.5664C158.633 12.8711 159.289 13.3477 159.781 13.9961C160.281 14.6367 160.531 15.4453 160.531 16.4219V25H157.25V23.2422H157.156C156.82 23.8594 156.34 24.3477 155.715 24.707C155.098 25.0586 154.336 25.2344 153.43 25.2344C152.602 25.2344 151.867 25.0938 151.227 24.8125C150.594 24.5234 150.094 24.0938 149.727 23.5234C149.367 22.9531 149.188 22.2578 149.188 21.4375ZM152.516 21.3438C152.516 21.8203 152.688 22.1914 153.031 22.457C153.383 22.7148 153.844 22.8438 154.414 22.8438C154.93 22.8438 155.391 22.7383 155.797 22.5273C156.211 22.3164 156.531 22.0273 156.758 21.6602C156.984 21.293 157.094 20.8906 157.086 20.4531V19.5273C156.719 19.5352 156.266 19.5547 155.727 19.5859C155.188 19.6172 154.773 19.6484 154.484 19.6797C153.875 19.7422 153.395 19.9141 153.043 20.1953C152.691 20.4766 152.516 20.8594 152.516 21.3438ZM163.18 12.2734H166.602V14.4062H166.742C167.031 13.7656 167.469 13.2227 168.055 12.7773C168.641 12.332 169.414 12.1094 170.375 12.1094C171.336 12.1094 172.207 12.3594 172.988 12.8594C173.77 13.3516 174.387 14.0898 174.84 15.0742C175.301 16.0508 175.531 17.2422 175.531 18.6484C175.531 20.0234 175.305 21.207 174.852 22.1992C174.406 23.1836 173.793 23.9336 173.012 24.4492C172.238 24.957 171.359 25.2109 170.375 25.2109C169.43 25.2109 168.66 24.9961 168.066 24.5664C167.48 24.1289 167.039 23.5938 166.742 22.9609H166.648V29.7812H163.18V12.2734ZM166.578 18.625C166.578 19.3906 166.684 20.0625 166.895 20.6406C167.105 21.2109 167.414 21.6562 167.82 21.9766C168.227 22.2891 168.711 22.4453 169.273 22.4453C170.141 22.4453 170.809 22.0977 171.277 21.4023C171.754 20.707 171.992 19.7812 171.992 18.625C171.992 17.4844 171.754 16.5742 171.277 15.8945C170.809 15.2148 170.141 14.875 169.273 14.875C168.414 14.875 167.75 15.2109 167.281 15.8828C166.812 16.5469 166.578 17.4609 166.578 18.625ZM177.781 12.2734H181.203V14.4062H181.344C181.633 13.7656 182.07 13.2227 182.656 12.7773C183.242 12.332 184.016 12.1094 184.977 12.1094C185.938 12.1094 186.809 12.3594 187.59 12.8594C188.371 13.3516 188.988 14.0898 189.441 15.0742C189.902 16.0508 190.133 17.2422 190.133 18.6484C190.133 20.0234 189.906 21.207 189.453 22.1992C189.008 23.1836 188.395 23.9336 187.613 24.4492C186.84 24.957 185.961 25.2109 184.977 25.2109C184.031 25.2109 183.262 24.9961 182.668 24.5664C182.082 24.1289 181.641 23.5938 181.344 22.9609H181.25V29.7812H177.781V12.2734ZM181.18 18.625C181.18 19.3906 181.285 20.0625 181.496 20.6406C181.707 21.2109 182.016 21.6562 182.422 21.9766C182.828 22.2891 183.312 22.4453 183.875 22.4453C184.742 22.4453 185.41 22.0977 185.879 21.4023C186.355 20.707 186.594 19.7812 186.594 18.625C186.594 17.4844 186.355 16.5742 185.879 15.8945C185.41 15.2148 184.742 14.875 183.875 14.875C183.016 14.875 182.352 15.2109 181.883 15.8828C181.414 16.5469 181.18 17.4609 181.18 18.625Z" fill="black"/>
</svg>
